<svg version="1.1" id="Layer_1" xmlns="http://www.w3.org/2000/svg" xmlns:xlink="http://www.w3.org/1999/xlink" x="0px" y="0px"
	 viewBox="0 0 4000 3000" style="enable-background:new 0 0 4000 3000;" xml:space="preserve">
<style type="text/css">
	.st0{fill:url(#SVGID_1_);}
	.st1{opacity:0;fill:url(#SVGID_00000087406945360777494110000003931263862998849467_);}
</style>
<g>
	<g>
		<linearGradient id="SVGID_1_" gradientUnits="userSpaceOnUse" x1="1461.0643" y1="1671.0071" x2="2724.7566" y2="1211.0607">
			<stop offset="0" style="stop-color:#36a8ca"/>
			<stop offset="0.5039" style="stop-color:#36a8ca"/>
			<stop offset="1" style="stop-color:#36a8ca"/>
		</linearGradient>
		<path class="st0" d="M2554.08,742.13c-6.77,4.02-13.26,9.27-18.79,16.04c-12.02,21.3-14.8,54.96-14.8,75.02v927.63h1.24
			c0,20.09-1.24,38.92-4.02,57.74c-18.79,156.83-112.49,262.69-215.46,320.43c-1.2,1.24-2.75,1.24-3.98,2.78c0,0,0,0-1.24,0
			c-12.02,6.8-24.04,13.26-36.07,18.82c-2.78,0-4.02,1.24-6.8,2.78c0,0,0,0-1.2,0c-41.63,17.28-82.92,28.1-120.53,30.88
			c-14.8,1.24-29.61,1.24-45.61,1.24c-115,0-225.05-44.17-306.42-127.5c-81.68-81.82-126.98-190.46-126.98-306.86
			c0-116.68,45.61-225.32,126.98-306.83c73.68-75.02,171.4-119.15,274.34-125.95l-177.85-449.48c0,0-322.42,827.03-323.97,831.01
			c-1.24,4.02-2.75,9.27-2.75,13.29c0,13.26,6.77,18.82,14.77,24.08h-76.11c9.24-6.8,18.79-13.29,25.59-22.84
			c8-9.27,14.77-20.06,20.02-30.88l14.8-36.1l365.26-932.58h4.02c0,0,361.24,910.01,364.02,914.03
			c6.8,17.31,14.8,34.9,24.04,53.72c13.26,28.1,32.05,44.14,58.87,54.96h-169.85c5.26-6.8,9.27-14.8,9.27-26.86
			c0-16.04-16.04-60.21-16.04-60.21l-116.51-292.33
			c-226.25,8.04-406.88,164.87-406.88,392.66c0,233.39,188.64,423.54,421.65,423.54c14.8,0,28.06-1.24,41.63-2.78
			c98.96-14.8,295.91-97.86,295.91-410.25V837.51c0-9.27,0-26.86-2.78-42.9c-1.24-14.84-5.22-33.66-16.01-42.9
			c-4.02-4.02-8.04-6.8-12.02-9.27h160.27V742.13z"/>
	</g>
	
		<linearGradient id="SVGID_00000075164041251725089550000011703664066882827951_" gradientUnits="userSpaceOnUse" x1="1260.0244" y1="1737.3053" x2="2782.8691" y2="1183.0352">
		<stop offset="0" style="stop-color:#36a8ca"/>
		<stop offset="0.5039" style="stop-color:#36a8ca"/>
		<stop offset="1" style="stop-color:#36a8ca"/>
	</linearGradient>
	
		<rect x="1374.88" y="867.48" style="opacity:0;fill:url(#SVGID_00000075164041251725089550000011703664066882827951_);" width="1293.14" height="1185.38"/>
</g>
</svg>
